<mxfile host="app.diagrams.net" modified="2022-11-03T03:36:56.904Z" agent="5.0 (Macintosh; Intel Mac OS X 10_15_7) AppleWebKit/537.36 (KHTML, like Gecko) Chrome/107.0.0.0 Safari/537.36" etag="MoZtj8RO3Za2DyquTPQA" version="20.5.1" type="github">
  <diagram id="yPxyJZ8AM_hMuL3Unpa9" name="simple gitflow">
    <mxGraphModel dx="2466" dy="1665" grid="0" gridSize="10" guides="1" tooltips="1" connect="1" arrows="1" fold="1" page="0" pageScale="1" pageWidth="1100" pageHeight="850" math="0" shadow="0">
      <root>
        <mxCell id="0" />
        <mxCell id="1" parent="0" />
        <UserObject label="&lt;font style=&quot;font-size: 24px;&quot;&gt;LCP Git Flow&lt;/font&gt;" id="9hBKPDzoitwpIBdzFDQ7-6">
          <mxCell style="text;whiteSpace=wrap;html=1;fontStyle=1;fontSize=17;" parent="1" vertex="1">
            <mxGeometry x="45" y="-38" width="212" height="34" as="geometry" />
          </mxCell>
        </UserObject>
        <mxCell id="9hBKPDzoitwpIBdzFDQ7-23" value="" style="edgeStyle=orthogonalEdgeStyle;rounded=0;html=1;jettySize=auto;orthogonalLoop=1;plain-blue;endArrow=none;endFill=0;strokeWidth=4;strokeColor=#000000;" parent="1" source="9hBKPDzoitwpIBdzFDQ7-25" target="9hBKPDzoitwpIBdzFDQ7-26" edge="1">
          <mxGeometry x="304.5" y="180" as="geometry" />
        </mxCell>
        <mxCell id="9hBKPDzoitwpIBdzFDQ7-24" style="edgeStyle=orthogonalEdgeStyle;curved=1;rounded=0;html=1;exitX=1;exitY=0.5;exitPerimeter=0;entryX=0;entryY=0.5;entryPerimeter=0;endArrow=none;endFill=0;jettySize=auto;orthogonalLoop=1;strokeWidth=4;fontSize=15;" parent="1" source="9hBKPDzoitwpIBdzFDQ7-25" target="9hBKPDzoitwpIBdzFDQ7-30" edge="1">
          <mxGeometry relative="1" as="geometry" />
        </mxCell>
        <mxCell id="9hBKPDzoitwpIBdzFDQ7-25" value="" style="verticalLabelPosition=bottom;verticalAlign=top;html=1;strokeWidth=4;shape=mxgraph.flowchart.on-page_reference;plain-blue;gradientColor=none;fillColor=#B5E3Fe;strokeColor=#000000;" parent="1" vertex="1">
          <mxGeometry x="274.5" y="165" width="30" height="30" as="geometry" />
        </mxCell>
        <mxCell id="9hBKPDzoitwpIBdzFDQ7-41" value="" style="edgeStyle=orthogonalEdgeStyle;curved=1;rounded=0;orthogonalLoop=1;jettySize=auto;html=1;endArrow=none;endFill=0;strokeWidth=4;fontFamily=Courier New;fontSize=16;" parent="1" source="9hBKPDzoitwpIBdzFDQ7-26" target="9hBKPDzoitwpIBdzFDQ7-40" edge="1">
          <mxGeometry relative="1" as="geometry" />
        </mxCell>
        <mxCell id="9hBKPDzoitwpIBdzFDQ7-26" value="" style="verticalLabelPosition=bottom;verticalAlign=top;html=1;strokeWidth=4;shape=mxgraph.flowchart.on-page_reference;plain-blue;gradientColor=none;strokeColor=#000000;" parent="1" vertex="1">
          <mxGeometry x="942" y="165" width="30" height="30" as="geometry" />
        </mxCell>
        <mxCell id="9hBKPDzoitwpIBdzFDQ7-43" value="" style="edgeStyle=orthogonalEdgeStyle;curved=1;rounded=0;orthogonalLoop=1;jettySize=auto;html=1;endArrow=none;endFill=0;strokeWidth=4;fontFamily=Courier New;fontSize=16;entryX=0;entryY=0.5;entryDx=0;entryDy=0;entryPerimeter=0;" parent="1" source="9hBKPDzoitwpIBdzFDQ7-40" target="9hBKPDzoitwpIBdzFDQ7-55" edge="1">
          <mxGeometry relative="1" as="geometry">
            <mxPoint x="1199" y="180" as="targetPoint" />
          </mxGeometry>
        </mxCell>
        <mxCell id="9hBKPDzoitwpIBdzFDQ7-52" value="" style="edgeStyle=orthogonalEdgeStyle;curved=1;rounded=0;orthogonalLoop=1;jettySize=auto;html=1;endArrow=none;endFill=0;strokeWidth=4;fontFamily=Courier New;fontSize=16;entryX=0;entryY=0.5;entryDx=0;entryDy=0;entryPerimeter=0;" parent="1" source="9hBKPDzoitwpIBdzFDQ7-40" target="9hBKPDzoitwpIBdzFDQ7-50" edge="1">
          <mxGeometry relative="1" as="geometry">
            <mxPoint x="1109.5" y="275" as="targetPoint" />
          </mxGeometry>
        </mxCell>
        <mxCell id="9hBKPDzoitwpIBdzFDQ7-40" value="" style="verticalLabelPosition=bottom;verticalAlign=top;html=1;strokeWidth=4;shape=mxgraph.flowchart.on-page_reference;plain-blue;gradientColor=none;strokeColor=#000000;" parent="1" vertex="1">
          <mxGeometry x="1100" y="165" width="30" height="30" as="geometry" />
        </mxCell>
        <mxCell id="9hBKPDzoitwpIBdzFDQ7-55" value="" style="verticalLabelPosition=bottom;verticalAlign=top;html=1;strokeWidth=4;shape=mxgraph.flowchart.on-page_reference;plain-blue;gradientColor=none;strokeColor=#000000;" parent="1" vertex="1">
          <mxGeometry x="1291.25" y="165" width="30" height="30" as="geometry" />
        </mxCell>
        <mxCell id="9hBKPDzoitwpIBdzFDQ7-27" value="" style="edgeStyle=orthogonalEdgeStyle;rounded=0;html=1;jettySize=auto;orthogonalLoop=1;strokeWidth=4;endArrow=none;endFill=0;" parent="1" target="9hBKPDzoitwpIBdzFDQ7-25" edge="1">
          <mxGeometry x="204.5" y="180" as="geometry">
            <mxPoint x="160" y="180" as="sourcePoint" />
          </mxGeometry>
        </mxCell>
        <mxCell id="9hBKPDzoitwpIBdzFDQ7-28" value="main" style="text;html=1;strokeColor=none;fillColor=none;align=center;verticalAlign=middle;whiteSpace=wrap;overflow=hidden;fontSize=14;fontStyle=1;fontFamily=Courier New;" parent="1" vertex="1">
          <mxGeometry x="90" y="170" width="50" height="20" as="geometry" />
        </mxCell>
        <mxCell id="9hBKPDzoitwpIBdzFDQ7-29" style="edgeStyle=orthogonalEdgeStyle;curved=1;rounded=0;html=1;exitX=1;exitY=0.5;exitPerimeter=0;endArrow=none;endFill=0;jettySize=auto;orthogonalLoop=1;strokeWidth=4;fontSize=15;" parent="1" source="9hBKPDzoitwpIBdzFDQ7-30" target="1iq-6d7PyXUU5rrVAghQ-24" edge="1">
          <mxGeometry relative="1" as="geometry">
            <mxPoint x="647" y="258" as="targetPoint" />
            <Array as="points" />
          </mxGeometry>
        </mxCell>
        <mxCell id="9hBKPDzoitwpIBdzFDQ7-30" value="" style="verticalLabelPosition=bottom;verticalAlign=top;html=1;strokeWidth=4;shape=mxgraph.flowchart.on-page_reference;plain-purple;gradientColor=none;strokeColor=#000000;" parent="1" vertex="1">
          <mxGeometry x="423" y="243" width="30" height="30" as="geometry" />
        </mxCell>
        <mxCell id="9hBKPDzoitwpIBdzFDQ7-35" value="feature/lcp-application" style="text;html=1;strokeColor=none;fillColor=none;align=left;verticalAlign=middle;whiteSpace=wrap;overflow=hidden;fontSize=14;fontStyle=1;fontFamily=Courier New;" parent="1" vertex="1">
          <mxGeometry x="97.5" y="250" width="240" height="20" as="geometry" />
        </mxCell>
        <mxCell id="9hBKPDzoitwpIBdzFDQ7-37" value="The main branch&lt;br&gt;" style="text;html=1;strokeColor=none;fillColor=none;align=left;verticalAlign=middle;whiteSpace=wrap;overflow=hidden;fontSize=14;fontStyle=0;fontColor=#009900;" parent="1" vertex="1">
          <mxGeometry x="95.25" y="190" width="132.25" height="20" as="geometry" />
        </mxCell>
        <mxCell id="9hBKPDzoitwpIBdzFDQ7-38" value="feature branch" style="text;html=1;strokeColor=none;fillColor=none;align=left;verticalAlign=middle;whiteSpace=wrap;overflow=hidden;fontSize=14;fontStyle=0;fontColor=#009900;" parent="1" vertex="1">
          <mxGeometry x="97.5" y="275" width="202.25" height="20" as="geometry" />
        </mxCell>
        <mxCell id="9hBKPDzoitwpIBdzFDQ7-54" value="" style="edgeStyle=orthogonalEdgeStyle;curved=1;rounded=0;orthogonalLoop=1;jettySize=auto;html=1;endArrow=none;endFill=0;strokeWidth=4;fontFamily=Courier New;fontSize=16;entryX=0;entryY=0.5;entryDx=0;entryDy=0;entryPerimeter=0;" parent="1" source="9hBKPDzoitwpIBdzFDQ7-50" target="9hBKPDzoitwpIBdzFDQ7-55" edge="1">
          <mxGeometry relative="1" as="geometry">
            <mxPoint x="1322.25" y="260" as="targetPoint" />
          </mxGeometry>
        </mxCell>
        <mxCell id="9hBKPDzoitwpIBdzFDQ7-50" value="" style="verticalLabelPosition=bottom;verticalAlign=top;html=1;strokeWidth=4;shape=mxgraph.flowchart.on-page_reference;plain-blue;gradientColor=#EA6B66;strokeColor=#B85450;fillColor=#F8CECC;" parent="1" vertex="1">
          <mxGeometry x="1189" y="609" width="30" height="30" as="geometry" />
        </mxCell>
        <mxCell id="1iq-6d7PyXUU5rrVAghQ-1" value="" style="verticalLabelPosition=bottom;verticalAlign=top;html=1;strokeWidth=4;shape=mxgraph.flowchart.on-page_reference;plain-purple;gradientColor=none;strokeColor=#000000;" vertex="1" parent="1">
          <mxGeometry x="483" y="323" width="30" height="30" as="geometry" />
        </mxCell>
        <mxCell id="1iq-6d7PyXUU5rrVAghQ-5" style="edgeStyle=orthogonalEdgeStyle;curved=1;rounded=0;html=1;exitX=0.5;exitY=1;exitPerimeter=0;endArrow=none;endFill=0;jettySize=auto;orthogonalLoop=1;strokeWidth=4;fontSize=15;exitDx=0;exitDy=0;entryX=0;entryY=0.5;entryDx=0;entryDy=0;entryPerimeter=0;" edge="1" parent="1" source="9hBKPDzoitwpIBdzFDQ7-30" target="1iq-6d7PyXUU5rrVAghQ-1">
          <mxGeometry relative="1" as="geometry">
            <mxPoint x="364" y="275" as="sourcePoint" />
            <mxPoint x="407" y="355" as="targetPoint" />
          </mxGeometry>
        </mxCell>
        <mxCell id="1iq-6d7PyXUU5rrVAghQ-16" value="" style="verticalLabelPosition=bottom;verticalAlign=top;html=1;strokeWidth=4;shape=mxgraph.flowchart.on-page_reference;plain-purple;gradientColor=none;strokeColor=#000000;" vertex="1" parent="1">
          <mxGeometry x="589" y="323" width="30" height="30" as="geometry" />
        </mxCell>
        <mxCell id="1iq-6d7PyXUU5rrVAghQ-18" style="edgeStyle=orthogonalEdgeStyle;curved=1;rounded=0;html=1;exitX=1;exitY=0.5;exitPerimeter=0;endArrow=none;endFill=0;jettySize=auto;orthogonalLoop=1;strokeWidth=4;fontSize=15;exitDx=0;exitDy=0;entryX=0;entryY=0.5;entryDx=0;entryDy=0;entryPerimeter=0;" edge="1" parent="1" source="1iq-6d7PyXUU5rrVAghQ-1" target="1iq-6d7PyXUU5rrVAghQ-16">
          <mxGeometry relative="1" as="geometry">
            <mxPoint x="504" y="340" as="sourcePoint" />
            <mxPoint x="537" y="405" as="targetPoint" />
          </mxGeometry>
        </mxCell>
        <mxCell id="1iq-6d7PyXUU5rrVAghQ-19" style="edgeStyle=orthogonalEdgeStyle;curved=1;rounded=0;html=1;exitX=0.5;exitY=1;exitPerimeter=0;entryX=1;entryY=0.5;entryPerimeter=0;endArrow=none;endFill=0;jettySize=auto;orthogonalLoop=1;strokeWidth=4;fontSize=15;entryDx=0;entryDy=0;exitDx=0;exitDy=0;" edge="1" parent="1" source="1iq-6d7PyXUU5rrVAghQ-24" target="1iq-6d7PyXUU5rrVAghQ-16">
          <mxGeometry relative="1" as="geometry">
            <mxPoint x="662" y="273" as="sourcePoint" />
            <mxPoint x="678" y="331" as="targetPoint" />
          </mxGeometry>
        </mxCell>
        <mxCell id="1iq-6d7PyXUU5rrVAghQ-20" value="feature/lcp-application/shaoyingzhu_app_menu" style="text;html=1;strokeColor=none;fillColor=none;align=left;verticalAlign=middle;whiteSpace=wrap;overflow=hidden;fontSize=14;fontStyle=1;fontFamily=Courier New;" vertex="1" parent="1">
          <mxGeometry x="-16.620000000000005" y="323" width="428" height="24" as="geometry" />
        </mxCell>
        <mxCell id="1iq-6d7PyXUU5rrVAghQ-21" value="commit1" style="text;html=1;strokeColor=none;fillColor=none;align=center;verticalAlign=middle;whiteSpace=wrap;overflow=hidden;fontSize=14;fontStyle=1;fontFamily=Courier New;" vertex="1" parent="1">
          <mxGeometry x="457" y="295" width="87" height="23" as="geometry" />
        </mxCell>
        <mxCell id="1iq-6d7PyXUU5rrVAghQ-22" value="commit2" style="text;html=1;strokeColor=none;fillColor=none;align=center;verticalAlign=middle;whiteSpace=wrap;overflow=hidden;fontSize=14;fontStyle=1;fontFamily=Courier New;" vertex="1" parent="1">
          <mxGeometry x="545.25" y="295" width="87" height="23" as="geometry" />
        </mxCell>
        <mxCell id="1iq-6d7PyXUU5rrVAghQ-23" value="sub feature branch" style="text;html=1;strokeColor=none;fillColor=none;align=left;verticalAlign=middle;whiteSpace=wrap;overflow=hidden;fontSize=14;fontStyle=0;fontColor=#009900;" vertex="1" parent="1">
          <mxGeometry x="-16.62" y="347" width="202.25" height="20" as="geometry" />
        </mxCell>
        <mxCell id="1iq-6d7PyXUU5rrVAghQ-24" value="" style="verticalLabelPosition=bottom;verticalAlign=top;html=1;strokeWidth=4;shape=mxgraph.flowchart.on-page_reference;plain-purple;gradientColor=none;strokeColor=#000000;" vertex="1" parent="1">
          <mxGeometry x="651" y="243" width="30" height="30" as="geometry" />
        </mxCell>
        <mxCell id="1iq-6d7PyXUU5rrVAghQ-25" value="" style="verticalLabelPosition=bottom;verticalAlign=top;html=1;strokeWidth=4;shape=mxgraph.flowchart.on-page_reference;plain-purple;gradientColor=none;strokeColor=#000000;" vertex="1" parent="1">
          <mxGeometry x="755" y="243" width="30" height="30" as="geometry" />
        </mxCell>
        <mxCell id="1iq-6d7PyXUU5rrVAghQ-26" style="edgeStyle=orthogonalEdgeStyle;curved=1;rounded=0;html=1;exitX=1;exitY=0.5;exitPerimeter=0;endArrow=none;endFill=0;jettySize=auto;orthogonalLoop=1;strokeWidth=4;fontSize=15;exitDx=0;exitDy=0;" edge="1" parent="1" source="1iq-6d7PyXUU5rrVAghQ-24">
          <mxGeometry relative="1" as="geometry">
            <mxPoint x="697" y="308" as="sourcePoint" />
            <mxPoint x="755" y="258" as="targetPoint" />
            <Array as="points" />
          </mxGeometry>
        </mxCell>
        <mxCell id="1iq-6d7PyXUU5rrVAghQ-27" value="feature/lcp-application/zhiqiangni_app_content" style="text;html=1;strokeColor=none;fillColor=none;align=left;verticalAlign=middle;whiteSpace=wrap;overflow=hidden;fontSize=14;fontStyle=1;fontFamily=Courier New;" vertex="1" parent="1">
          <mxGeometry x="-15.380000000000004" y="409" width="428" height="24" as="geometry" />
        </mxCell>
        <mxCell id="1iq-6d7PyXUU5rrVAghQ-28" value="sub feature branch" style="text;html=1;strokeColor=none;fillColor=none;align=left;verticalAlign=middle;whiteSpace=wrap;overflow=hidden;fontSize=14;fontStyle=0;fontColor=#009900;" vertex="1" parent="1">
          <mxGeometry x="-15.38" y="435" width="202.25" height="20" as="geometry" />
        </mxCell>
        <mxCell id="1iq-6d7PyXUU5rrVAghQ-29" value="" style="verticalLabelPosition=bottom;verticalAlign=top;html=1;strokeWidth=4;shape=mxgraph.flowchart.on-page_reference;plain-purple;gradientColor=none;strokeColor=#000000;" vertex="1" parent="1">
          <mxGeometry x="557" y="414" width="30" height="30" as="geometry" />
        </mxCell>
        <mxCell id="1iq-6d7PyXUU5rrVAghQ-30" style="edgeStyle=orthogonalEdgeStyle;curved=1;rounded=0;html=1;exitX=0;exitY=0.5;exitPerimeter=0;entryX=0.5;entryY=1;entryPerimeter=0;endArrow=none;endFill=0;jettySize=auto;orthogonalLoop=1;strokeWidth=4;fontSize=15;entryDx=0;entryDy=0;exitDx=0;exitDy=0;" edge="1" parent="1" source="1iq-6d7PyXUU5rrVAghQ-29" target="9hBKPDzoitwpIBdzFDQ7-30">
          <mxGeometry relative="1" as="geometry">
            <mxPoint x="-148.5" y="129.5" as="sourcePoint" />
            <mxPoint x="-214" y="40.5" as="targetPoint" />
          </mxGeometry>
        </mxCell>
        <mxCell id="1iq-6d7PyXUU5rrVAghQ-31" style="edgeStyle=orthogonalEdgeStyle;curved=1;rounded=0;html=1;exitX=0.5;exitY=1;exitPerimeter=0;entryX=1;entryY=0.5;entryPerimeter=0;endArrow=none;endFill=0;jettySize=auto;orthogonalLoop=1;strokeWidth=4;fontSize=15;entryDx=0;entryDy=0;exitDx=0;exitDy=0;" edge="1" parent="1" source="1iq-6d7PyXUU5rrVAghQ-25" target="1iq-6d7PyXUU5rrVAghQ-29">
          <mxGeometry relative="1" as="geometry">
            <mxPoint x="-148.5" y="129.5" as="sourcePoint" />
            <mxPoint x="-214" y="40.5" as="targetPoint" />
          </mxGeometry>
        </mxCell>
        <mxCell id="1iq-6d7PyXUU5rrVAghQ-32" value="init branch" style="text;html=1;strokeColor=none;fillColor=none;align=center;verticalAlign=middle;whiteSpace=wrap;overflow=hidden;fontSize=14;fontStyle=1;fontFamily=Courier New;" vertex="1" parent="1">
          <mxGeometry x="394" y="216" width="100" height="23" as="geometry" />
        </mxCell>
        <mxCell id="1iq-6d7PyXUU5rrVAghQ-33" value="merge" style="text;html=1;strokeColor=none;fillColor=none;align=center;verticalAlign=middle;whiteSpace=wrap;overflow=hidden;fontSize=14;fontStyle=1;fontFamily=Courier New;" vertex="1" parent="1">
          <mxGeometry x="616" y="213" width="100" height="23" as="geometry" />
        </mxCell>
        <mxCell id="1iq-6d7PyXUU5rrVAghQ-34" value="merge" style="text;html=1;strokeColor=none;fillColor=none;align=center;verticalAlign=middle;whiteSpace=wrap;overflow=hidden;fontSize=14;fontStyle=1;fontFamily=Courier New;" vertex="1" parent="1">
          <mxGeometry x="720" y="213" width="100" height="23" as="geometry" />
        </mxCell>
        <mxCell id="1iq-6d7PyXUU5rrVAghQ-35" style="edgeStyle=orthogonalEdgeStyle;curved=1;rounded=0;html=1;entryX=0.5;entryY=1;entryPerimeter=0;endArrow=none;endFill=0;jettySize=auto;orthogonalLoop=1;strokeWidth=4;fontSize=15;entryDx=0;entryDy=0;exitX=0;exitY=0.5;exitDx=0;exitDy=0;" edge="1" parent="1" source="1iq-6d7PyXUU5rrVAghQ-36" target="9hBKPDzoitwpIBdzFDQ7-30">
          <mxGeometry relative="1" as="geometry">
            <mxPoint x="550" y="528" as="sourcePoint" />
            <mxPoint x="-214" y="40.5" as="targetPoint" />
          </mxGeometry>
        </mxCell>
        <UserObject label="·&lt;br&gt;·&lt;br&gt;·" id="1iq-6d7PyXUU5rrVAghQ-36">
          <mxCell style="text;whiteSpace=wrap;html=1;fontStyle=1;fontSize=17;verticalAlign=middle;" vertex="1" parent="1">
            <mxGeometry x="564" y="479" width="11" height="84" as="geometry" />
          </mxCell>
        </UserObject>
        <mxCell id="1iq-6d7PyXUU5rrVAghQ-37" value="" style="verticalLabelPosition=bottom;verticalAlign=top;html=1;strokeWidth=4;shape=mxgraph.flowchart.on-page_reference;plain-purple;gradientColor=none;strokeColor=#000000;" vertex="1" parent="1">
          <mxGeometry x="842" y="243" width="30" height="30" as="geometry" />
        </mxCell>
        <mxCell id="1iq-6d7PyXUU5rrVAghQ-38" style="edgeStyle=orthogonalEdgeStyle;curved=1;rounded=0;html=1;exitX=1;exitY=0.5;exitPerimeter=0;endArrow=none;endFill=0;jettySize=auto;orthogonalLoop=1;strokeWidth=4;fontSize=15;exitDx=0;exitDy=0;entryX=0;entryY=0.5;entryDx=0;entryDy=0;entryPerimeter=0;" edge="1" parent="1" source="1iq-6d7PyXUU5rrVAghQ-25" target="1iq-6d7PyXUU5rrVAghQ-37">
          <mxGeometry relative="1" as="geometry">
            <mxPoint x="691" y="268" as="sourcePoint" />
            <mxPoint x="765" y="268" as="targetPoint" />
            <Array as="points" />
          </mxGeometry>
        </mxCell>
        <mxCell id="1iq-6d7PyXUU5rrVAghQ-39" style="edgeStyle=orthogonalEdgeStyle;curved=1;rounded=0;html=1;exitX=0.5;exitY=1;exitPerimeter=0;entryX=1;entryY=0.5;endArrow=none;endFill=0;jettySize=auto;orthogonalLoop=1;strokeWidth=4;fontSize=15;entryDx=0;entryDy=0;exitDx=0;exitDy=0;" edge="1" parent="1" source="1iq-6d7PyXUU5rrVAghQ-37" target="1iq-6d7PyXUU5rrVAghQ-36">
          <mxGeometry relative="1" as="geometry">
            <mxPoint x="-148.5" y="129.5" as="sourcePoint" />
            <mxPoint x="-214" y="40.5" as="targetPoint" />
          </mxGeometry>
        </mxCell>
        <mxCell id="1iq-6d7PyXUU5rrVAghQ-40" value="merge" style="text;html=1;strokeColor=none;fillColor=none;align=center;verticalAlign=middle;whiteSpace=wrap;overflow=hidden;fontSize=14;fontStyle=1;fontFamily=Courier New;" vertex="1" parent="1">
          <mxGeometry x="809" y="213" width="100" height="23" as="geometry" />
        </mxCell>
        <mxCell id="1iq-6d7PyXUU5rrVAghQ-41" style="edgeStyle=orthogonalEdgeStyle;curved=1;rounded=0;html=1;exitX=0.5;exitY=1;exitPerimeter=0;entryX=1;entryY=0.5;entryPerimeter=0;endArrow=none;endFill=0;jettySize=auto;orthogonalLoop=1;strokeWidth=4;fontSize=15;entryDx=0;entryDy=0;exitDx=0;exitDy=0;" edge="1" parent="1" source="9hBKPDzoitwpIBdzFDQ7-26" target="1iq-6d7PyXUU5rrVAghQ-37">
          <mxGeometry relative="1" as="geometry">
            <mxPoint x="-148.5" y="129.5" as="sourcePoint" />
            <mxPoint x="-214" y="40.5" as="targetPoint" />
          </mxGeometry>
        </mxCell>
        <mxCell id="1iq-6d7PyXUU5rrVAghQ-42" value="merge feature" style="text;html=1;strokeColor=none;fillColor=none;align=center;verticalAlign=middle;whiteSpace=wrap;overflow=hidden;fontSize=14;fontStyle=1;fontFamily=Courier New;" vertex="1" parent="1">
          <mxGeometry x="895" y="120" width="130" height="24" as="geometry" />
        </mxCell>
        <mxCell id="1iq-6d7PyXUU5rrVAghQ-43" value="fix/shaoyingzhu_template_bindings" style="text;html=1;strokeColor=none;fillColor=none;align=left;verticalAlign=middle;whiteSpace=wrap;overflow=hidden;fontSize=14;fontStyle=1;fontFamily=Courier New;" vertex="1" parent="1">
          <mxGeometry x="876" y="615" width="428" height="24" as="geometry" />
        </mxCell>
        <mxCell id="1iq-6d7PyXUU5rrVAghQ-44" value="fix branch" style="text;html=1;strokeColor=none;fillColor=none;align=left;verticalAlign=middle;whiteSpace=wrap;overflow=hidden;fontSize=14;fontStyle=0;fontColor=#009900;" vertex="1" parent="1">
          <mxGeometry x="876" y="639" width="202.25" height="20" as="geometry" />
        </mxCell>
        <mxCell id="1iq-6d7PyXUU5rrVAghQ-45" value="" style="edgeStyle=orthogonalEdgeStyle;curved=1;rounded=0;orthogonalLoop=1;jettySize=auto;html=1;endArrow=none;endFill=0;strokeWidth=4;fontFamily=Courier New;fontSize=16;exitX=1;exitY=0.5;exitDx=0;exitDy=0;exitPerimeter=0;" edge="1" parent="1" source="9hBKPDzoitwpIBdzFDQ7-55">
          <mxGeometry relative="1" as="geometry">
            <mxPoint x="1229" y="180" as="sourcePoint" />
            <mxPoint x="1386" y="180" as="targetPoint" />
          </mxGeometry>
        </mxCell>
        <mxCell id="1iq-6d7PyXUU5rrVAghQ-47" value="" style="shape=curlyBracket;whiteSpace=wrap;html=1;rounded=1;strokeWidth=3;rotation=90;" vertex="1" parent="1">
          <mxGeometry x="608.5" y="-239.5" width="24" height="677" as="geometry" />
        </mxCell>
        <UserObject label="&lt;font style=&quot;font-size: 18px;&quot;&gt;feature dev git flow&lt;/font&gt;" id="1iq-6d7PyXUU5rrVAghQ-49">
          <mxCell style="text;whiteSpace=wrap;html=1;fontStyle=1;fontSize=17;" vertex="1" parent="1">
            <mxGeometry x="528" y="43" width="234" height="32" as="geometry" />
          </mxCell>
        </UserObject>
        <UserObject label="&lt;font style=&quot;font-size: 18px;&quot;&gt;bug fixing git flow&lt;/font&gt;" id="1iq-6d7PyXUU5rrVAghQ-50">
          <mxCell style="text;whiteSpace=wrap;html=1;fontStyle=1;fontSize=17;" vertex="1" parent="1">
            <mxGeometry x="1130" y="41" width="234" height="32" as="geometry" />
          </mxCell>
        </UserObject>
        <mxCell id="1iq-6d7PyXUU5rrVAghQ-51" value="" style="shape=curlyBracket;whiteSpace=wrap;html=1;rounded=1;strokeWidth=3;rotation=90;" vertex="1" parent="1">
          <mxGeometry x="1192.5" y="3.5" width="26" height="191" as="geometry" />
        </mxCell>
      </root>
    </mxGraphModel>
  </diagram>
</mxfile>
